<svg width="30" height="30" viewBox="0 0 30 30" fill="none" xmlns="http://www.w3.org/2000/svg">
<g id="Group">
<path id="Vector" d="M30 15.0005C30 22.5765 24.3843 28.8396 17.089 29.856C16.4068 29.9506 15.7089 30 15.0005 30C14.1828 30 13.3798 29.9348 12.5978 29.8087C5.45493 28.6589 0 22.4661 0 15.0005C0 6.71618 6.71618 0 14.9995 0C23.2828 0 30 6.71618 30 15.0005Z" fill="#1877F2"/>
<path id="Vector_2" d="M17.0891 12.0439V15.3116H21.1314L20.4913 19.7134H17.0891V29.855C16.4069 29.9496 15.709 29.999 15.0006 29.999C14.1829 29.999 13.3799 29.9338 12.5979 29.8077V19.7134H8.86987V15.3116H12.5979V11.3135C12.5979 8.83299 14.6086 6.82129 17.0901 6.82129V6.82339C17.0975 6.82339 17.1038 6.82129 17.1111 6.82129H21.1324V10.6282H18.5048C17.7239 10.6282 17.0901 11.262 17.0901 12.0429L17.0891 12.0439Z" fill="white"/>
</g>
</svg>
