<?xml version="1.0" encoding="utf-8"?>
<!-- Generator: Adobe Illustrator 23.0.0, SVG Export Plug-In . SVG Version: 6.00 Build 0)  -->
<svg version="1.1" id="Layer_1" xmlns="http://www.w3.org/2000/svg" xmlns:xlink="http://www.w3.org/1999/xlink" x="0px" y="0px"
	 viewBox="0 0 1065 1065" style="enable-background:new 0 0 1065 1065;" xml:space="preserve">
<style type="text/css">
	.st0{fill:#125696;}
	.st1{fill:#36848A;}
</style>
<path class="st0" d="M539,768c-30.6,0-55.6,24.9-55.6,55.6c0,30.6,24.9,55.6,55.6,55.6c30.6,0,55.6-24.9,55.6-55.6
	S569.6,768,539,768z M539,849.9c-14.5,0-26.3-11.8-26.3-26.3s11.8-26.3,26.3-26.3s26.3,11.8,26.3,26.3
	C565.3,838.1,553.5,849.9,539,849.9z"/>
<path class="st1" d="M890.4,928.6c-2.2-5.6-7.6-9.2-13.6-9.2H772.9c-2.1-33.5-11.1-64.8-25.8-93.1
	c78.9-61.9,130.1-153.1,140.6-252.5c0.9-8-5-15.2-13-16.1c-8-0.9-15.2,5-16.1,13c-9.5,90-55,173-125.6,230
	c-3.3-4.8-7.7-8.7-11.3-13.3c-5.9-7.3-11.5-14.7-18.1-21.3c-0.8-0.8-1.3-1.8-2.1-2.5c144-115.2,149-334.6,4-454.6l14.3-14.3
	c5.7-5.7,5.7-15,0-20.7l-7.3-7.3l8-8c31.4,20.2,75.2,66.7,102.3,119.3c20.8,40.4,33.6,86.1,36.9,132c0.6,8.1,7.7,14.1,15.6,13.5
	c8.1-0.6,14.1-7.6,13.5-15.6c-7.8-108-61.5-205.6-147.4-270.2l31.7-31.7c15.8,7.8,31.5,3.8,41.7-6.4l12.9-12.9
	c14.2-14.2,14.2-37.2,0-51.3L734,41.8c-14.2-14.2-37.2-14.2-51.3,0l-12.9,12.9C656.5,68,656.2,89,668,103.3l-59.6,59.6l-13-13
	c-5.7-5.7-15-5.7-20.7,0l-93.2,93.2c-5.7,5.7-5.7,15,0,20.7s15,5.7,20.7,0L585,181c32.9,32.9,61.1,61.1,103.6,103.6L489.2,483.7
	L385.6,380.1l74.4-74.4c5.7-5.7,5.7-15,0-20.7s-15-5.7-20.7,0l-74.4,74.4l-3.2-3.2c-12.2-12.2-32.1-12.2-44.3,0L293,380.6
	c-12.2,12.2-12.2,32.1,0,44.3l3.2,3.2c-13.4,15.7-31.4,24-31.4,46.7c0,9.9,3.8,19.2,10.9,26.2c11,9.1,19.1,25.9,41.2,25.9
	c22.8,0,30.9-17.9,46.7-31.4l10.2,10.2c-13.4,15.7-31.4,24-31.4,46.7c0,21.9,16.7,30.2,25.9,41.2c7,7,16.3,10.8,26.2,10.8
	c22.8,0,30.9-17.9,46.7-31.4c2,1.4,9,12.4,25.3,12.4c8,0,16-3,22.1-9.1l24.5-24.5c12.2-12.2,12.2-32.1,0-44.3l-3.2-3.2L684.2,330
	c62.1,50.4,98.4,123.7,98.4,204.3c0,82.6-39.3,160.2-105.1,210.2c-91-66.8-211.7-60.2-295.3,15c-20-12.1-37.7-27-53.7-43.8h66.2
	c19.9,0,36.1-16.2,36.1-36.1v-22.1c0-19.9-16.2-36.1-36.1-36.1h-234c-19.9,0-36.1,16.2-36.1,36.1v22.1c0,19.9,16.2,36.1,36.1,36.1
	h33.8c24.2,45.9,69.1,96,125.9,131.9c-8.9,22.4-13.8,46.5-15.4,71.6H201.2c-6,0-11.4,3.7-13.6,9.2l-32.1,80.8
	c-3.8,9.6,3.3,20,13.6,20h80.7c8.1,0,14.6-6.5,14.6-14.6s-6.5-14.6-14.6-14.6h-59.2l20.5-51.6h655.8l20.5,51.6H318.2
	c-8.1,0-14.6,6.5-14.6,14.6s6.5,14.6,14.6,14.6h590.7c10.3,0,17.4-10.4,13.6-20L890.4,928.6z M322.4,495.4c-3,3-8,3-11,0l-15-15
	c-3-3-3-8,0-11l20.5-20.5l26.1,26L322.4,495.4z M400,573c-3,3-8,3-11,0l-15-15c-3-3-3-8,0-11l20.5-20.5l26.1,26L400,573z
	 M492.5,531.2L468,555.6c-2.8,2.8,4.7,6.2-154.3-151.4c-0.8-0.8-0.8-2.1,0-2.9c24.7-24.4,25.2-26.6,27.4-24.5l13.6,13.6
	C500.3,536.1,494.7,528.9,492.5,531.2z M690.5,75.1l12.9-12.9c2.8-2.8,7.2-2.8,10,0l93.6,93.6c2.7,2.8,2.7,7.2,0,10l-12.9,12.9
	c-2.8,2.8-7.2,2.8-10,0L690.4,85C687.8,82.4,687.8,77.9,690.5,75.1z M688.2,124.2l62.6,62.6l-59.1,59.1l-62.6-62.6L688.2,124.2z
	 M153.9,679.8v-22.1c0-3.8,3.1-6.8,6.8-6.8h234c3.8,0,6.8,3.1,6.8,6.8v22.1c0,3.8-3.1,6.8-6.8,6.8h-234
	C157,686.6,153.9,683.5,153.9,679.8z M332.3,821.3c-41.9-27.2-77.4-63.2-103.9-105.4H288c20.3,25.8,44.5,47.7,72,65.3
	c-2.9,3.4-4.9,7.5-7.6,11c-4.9,6.4-9.5,13-13.7,19.9C336.7,815.3,334,818,332.3,821.3z M333.3,919.3
	C340.7,814.9,430,727.7,539,727.7c111.2,0,198.5,89.6,205.7,191.6L333.3,919.3L333.3,919.3z"/>
</svg>
