<svg width="30" height="30" viewBox="0 0 30 30" fill="none" xmlns="http://www.w3.org/2000/svg">
<g id="Group">
<path id="Vector" d="M15.0342 0H14.9658C6.70044 0 0 6.70044 0 14.9658V15.0342C0 23.2996 6.70044 30 14.9658 30H15.0342C23.2996 30 30 23.2996 30 15.0342V14.9658C30 6.70044 23.2996 0 15.0342 0Z" fill="url(#paint0_linear_5026_745)"/>
<g id="Group_2">
<path id="Vector_2" d="M19.642 6.10352H10.3591C7.79458 6.10352 5.70825 8.18984 5.70825 10.7544V19.2468C5.70825 21.8114 7.79458 23.8977 10.3591 23.8977H19.642C22.2065 23.8977 24.2928 21.8114 24.2928 19.2468V10.7544C24.2928 8.18984 22.2065 6.10352 19.642 6.10352ZM7.34894 10.7544C7.34894 9.09479 8.69953 7.7442 10.3591 7.7442H19.642C21.3016 7.7442 22.6522 9.09479 22.6522 10.7544V19.2468C22.6522 20.9064 21.3016 22.257 19.642 22.257H10.3591C8.69953 22.257 7.34894 20.9064 7.34894 19.2468V10.7544Z" fill="white"/>
<path id="Vector_3" d="M15.0007 19.3255C17.3855 19.3255 19.3268 17.3853 19.3268 14.9994C19.3268 12.6136 17.3865 10.6733 15.0007 10.6733C12.6148 10.6733 10.6746 12.6136 10.6746 14.9994C10.6746 17.3853 12.6148 19.3255 15.0007 19.3255ZM15.0007 12.3151C16.4816 12.3151 17.6861 13.5196 17.6861 15.0005C17.6861 16.4814 16.4816 17.6859 15.0007 17.6859C13.5197 17.6859 12.3152 16.4814 12.3152 15.0005C12.3152 13.5196 13.5197 12.3151 15.0007 12.3151Z" fill="white"/>
<path id="Vector_4" d="M19.7271 11.3722C20.3693 11.3722 20.8927 10.8499 20.8927 10.2066C20.8927 9.56339 20.3704 9.04102 19.7271 9.04102C19.0839 9.04102 18.5615 9.56339 18.5615 10.2066C18.5615 10.8499 19.0839 11.3722 19.7271 11.3722Z" fill="white"/>
</g>
</g>
<defs>
<linearGradient id="paint0_linear_5026_745" x1="4.38286" y1="25.6171" x2="25.6171" y2="4.38391" gradientUnits="userSpaceOnUse">
<stop stop-color="#FAAD4F"/>
<stop offset="0.35" stop-color="#DD2A7B"/>
<stop offset="0.62" stop-color="#9537B0"/>
<stop offset="1" stop-color="#515BD4"/>
</linearGradient>
</defs>
</svg>
