<svg width="30" height="30" viewBox="0 0 30 30" fill="none" xmlns="http://www.w3.org/2000/svg">
<g id="Group">
<path id="Vector" d="M15.0342 0H14.9658C6.70045 0 0 6.70044 0 14.9658V15.0342C0 23.2996 6.70045 30 14.9658 30H15.0342C23.2996 30 30 23.2996 30 15.0342V14.9658C30 6.70044 23.2996 0 15.0342 0Z" fill="#007EBB"/>
<g id="Group_2">
<path id="Vector_2" d="M7.15447 9.9722C6.75928 9.60538 6.56274 9.15133 6.56274 8.61109C6.56274 8.07086 6.76033 7.59684 7.15447 7.22897C7.54966 6.86215 8.05837 6.67822 8.68164 6.67822C9.30491 6.67822 9.79366 6.86215 10.1878 7.22897C10.583 7.59578 10.7795 8.05719 10.7795 8.61109C10.7795 9.165 10.5819 9.60538 10.1878 9.9722C9.7926 10.339 9.29125 10.5229 8.68164 10.5229C8.07204 10.5229 7.54966 10.339 7.15447 9.9722ZM10.4474 12.0764V23.3226H6.89381V12.0764H10.4474Z" fill="#FEFFFC"/>
<path id="Vector_3" d="M22.2768 13.187C23.0515 14.0279 23.4383 15.1819 23.4383 16.6513V23.1236H20.0634V17.1074C20.0634 16.3665 19.871 15.7905 19.4874 15.3806C19.1038 14.9707 18.5866 14.7647 17.9392 14.7647C17.2918 14.7647 16.7746 14.9696 16.391 15.3806C16.0074 15.7905 15.815 16.3665 15.815 17.1074V23.1236H12.4202V12.0445H15.815V13.5139C16.1587 13.0241 16.6222 12.6373 17.2045 12.3525C17.7868 12.0677 18.4416 11.9258 19.17 11.9258C20.467 11.9258 21.5033 12.3462 22.2768 13.187Z" fill="#FEFFFC"/>
</g>
</g>
</svg>
