<svg width="30" height="30" viewBox="0 0 30 30" fill="none" xmlns="http://www.w3.org/2000/svg">
<g id="Group">
<path id="Vector" d="M29.9979 15.0005C29.9979 22.5765 24.3824 28.8396 17.0873 29.856C16.4052 29.9506 15.7073 30 14.9989 30C14.1813 30 13.3783 29.9348 12.5963 29.8087C5.45474 28.6589 0 22.4661 0 15.0005C0 6.71618 6.71595 0 15 0C23.2841 0 30 6.71618 30 15.0005H29.9979Z" fill="#1C1C1B"/>
<g id="layer1">
<path id="path1009" d="M6.08313 6.61523L13.0009 15.8644L6.04004 23.3847H7.6071L13.7019 16.8009L18.6259 23.3847H23.9576L16.651 13.6152L23.1305 6.61523H21.5634L15.951 12.6787L11.416 6.61523H6.08417H6.08313ZM8.38694 7.76928H10.8358L21.6517 22.2306H19.2029L8.38694 7.76928Z" fill="white"/>
</g>
</g>
</svg>
