<svg width="30" height="30" viewBox="0 0 30 30" fill="none" xmlns="http://www.w3.org/2000/svg">
<g id="Group">
<path id="Vector" d="M30 15C30 6.71573 23.2843 0 15 0C6.71574 0 0 6.71573 0 15C0 23.2843 6.71574 30 15 30C23.2843 30 30 23.2843 30 15Z" fill="#FF0209"/>
<g id="Group_2">
<path id="Vector_2" d="M21.3676 21.6436C20.9207 21.6921 20.4632 21.7005 20.0247 21.6994C16.6044 21.6963 13.184 21.6931 9.76471 21.691C8.68854 21.691 7.51645 21.6562 6.68482 20.9722C5.74778 20.1996 5.55278 18.8599 5.47689 17.6477C5.37149 15.9866 5.36306 14.3201 5.44949 12.6579C5.49692 11.7451 5.58019 10.8102 5.97334 9.98382C6.25582 9.3904 6.72698 8.85706 7.32989 8.57668C8.03082 8.25099 8.76443 8.30896 9.51913 8.3079C11.3257 8.3058 13.1324 8.30474 14.939 8.30263C16.8173 8.30053 18.6966 8.29947 20.5749 8.29736C21.4624 8.29736 22.4153 8.31528 23.1394 8.8286C24.0743 9.49053 24.3284 10.7501 24.4453 11.8895C24.6614 13.9881 24.6646 16.1088 24.4538 18.2074C24.3663 19.0728 24.2208 19.9877 23.6506 20.6444C23.0856 21.2957 22.2477 21.5466 21.3686 21.6425L21.3676 21.6436Z" fill="white"/>
<path id="Vector_3" d="M18.0587 15L12.9614 12.0571V17.9429L18.0587 15Z" fill="#FF0209"/>
</g>
</g>
</svg>
